<mxfile host="app.diagrams.net" modified="2024-01-21T11:39:45.325Z" agent="Mozilla/5.0 (Windows NT 10.0; Win64; x64) AppleWebKit/537.36 (KHTML, like Gecko) Chrome/120.0.0.0 Safari/537.36 OPR/106.0.0.0" etag="IBCnUuWTpzWvMPQWsfaK" version="22.1.21" type="device">
  <diagram id="C5RBs43oDa-KdzZeNtuy" name="Page-1">
    <mxGraphModel dx="221" dy="567" grid="1" gridSize="10" guides="1" tooltips="1" connect="1" arrows="1" fold="1" page="1" pageScale="1" pageWidth="827" pageHeight="1169" math="0" shadow="0">
      <root>
        <mxCell id="WIyWlLk6GJQsqaUBKTNV-0" />
        <mxCell id="WIyWlLk6GJQsqaUBKTNV-1" parent="WIyWlLk6GJQsqaUBKTNV-0" />
        <mxCell id="WIyWlLk6GJQsqaUBKTNV-2" value="" style="rounded=0;html=1;jettySize=auto;orthogonalLoop=1;fontSize=11;endArrow=block;endFill=0;endSize=8;strokeWidth=1;shadow=0;labelBackgroundColor=none;edgeStyle=orthogonalEdgeStyle;" parent="WIyWlLk6GJQsqaUBKTNV-1" source="WIyWlLk6GJQsqaUBKTNV-3" edge="1">
          <mxGeometry relative="1" as="geometry">
            <mxPoint x="220" y="170" as="targetPoint" />
          </mxGeometry>
        </mxCell>
        <mxCell id="WIyWlLk6GJQsqaUBKTNV-3" value="Load API Key, CSE ID and Google Images Key from Files" style="rounded=1;whiteSpace=wrap;html=1;fontSize=12;glass=0;strokeWidth=1;shadow=0;" parent="WIyWlLk6GJQsqaUBKTNV-1" vertex="1">
          <mxGeometry x="135" y="70" width="170" height="50" as="geometry" />
        </mxCell>
        <mxCell id="WIyWlLk6GJQsqaUBKTNV-8" value="200" style="rounded=0;html=1;jettySize=auto;orthogonalLoop=1;fontSize=11;endArrow=block;endFill=0;endSize=8;strokeWidth=1;shadow=0;labelBackgroundColor=none;edgeStyle=orthogonalEdgeStyle;exitX=0.5;exitY=1;exitDx=0;exitDy=0;" parent="WIyWlLk6GJQsqaUBKTNV-1" source="9ateyp8p53Qda5KzhCCX-3" target="WIyWlLk6GJQsqaUBKTNV-11" edge="1">
          <mxGeometry x="-0.2" y="20" relative="1" as="geometry">
            <mxPoint as="offset" />
            <mxPoint x="220" y="370" as="sourcePoint" />
          </mxGeometry>
        </mxCell>
        <mxCell id="9ateyp8p53Qda5KzhCCX-8" style="edgeStyle=orthogonalEdgeStyle;rounded=0;orthogonalLoop=1;jettySize=auto;html=1;exitX=0.5;exitY=1;exitDx=0;exitDy=0;entryX=0.5;entryY=0;entryDx=0;entryDy=0;" edge="1" parent="WIyWlLk6GJQsqaUBKTNV-1" source="WIyWlLk6GJQsqaUBKTNV-11" target="9ateyp8p53Qda5KzhCCX-7">
          <mxGeometry relative="1" as="geometry" />
        </mxCell>
        <mxCell id="WIyWlLk6GJQsqaUBKTNV-11" value="Loop Over Books (Extract Title, Check Uniqueness, Call Google Images API for Book Covers" style="rounded=1;whiteSpace=wrap;html=1;fontSize=12;glass=0;strokeWidth=1;shadow=0;" parent="WIyWlLk6GJQsqaUBKTNV-1" vertex="1">
          <mxGeometry x="160" y="400" width="120" height="80" as="geometry" />
        </mxCell>
        <mxCell id="9ateyp8p53Qda5KzhCCX-0" value="+-----------------------------------------------------+&#xa;|                       main()                        |&#xa;|                                                     |&#xa;|  +--------------+        +------------------------+  |&#xa;|  |  Load API    |        |  Load CSE ID and        |  |&#xa;|  |  Key from    |        |  Google Images Key      |  |&#xa;|  |  File        |        |  from Files             |  |&#xa;|  +------+-------+        +-------------+----------+  |&#xa;|         |                              |               |&#xa;|         v                              v               |&#xa;|  +------+---------------------+ +------+------------+|&#xa;|  | Build API Endpoint URL   | | Call Google Books  ||&#xa;|  | and Send GET Request     | | API to Get Book    ||&#xa;|  |                         | | Information        ||&#xa;|  +------------+------------+ +------+-------------+|&#xa;|               |                      |               |&#xa;|               v                      v               |&#xa;|  +------------+----------------------+-------------+|&#xa;|  | Process API Response (Check HTTP Status Code)    ||&#xa;|  |                                                  ||&#xa;|  +--------------------------+-----------------------+|&#xa;|                             |                        |&#xa;|                             v                        |&#xa;|  +--------------------------+-----------------------+|&#xa;|  | Loop over Books (Extract Title and Check Uniqueness||&#xa;|  | and Call Google Images API for Cover)              ||&#xa;|  +--------------------------+-----------------------+|&#xa;|                             |                        |&#xa;|                             v                        |&#xa;|  +--------------------------+-----------------------+|&#xa;|  | Call Google Images API to Search for Book Covers   ||&#xa;|  | using Google Custom Search API                     ||&#xa;|  +----------------------------------------------------+|&#xa;|                                                         |&#xa;+---------------------------------------------------------+" style="text;whiteSpace=wrap;" vertex="1" parent="WIyWlLk6GJQsqaUBKTNV-1">
          <mxGeometry x="487" y="100" width="340" height="530" as="geometry" />
        </mxCell>
        <mxCell id="9ateyp8p53Qda5KzhCCX-5" style="edgeStyle=orthogonalEdgeStyle;rounded=0;orthogonalLoop=1;jettySize=auto;html=1;exitX=0.5;exitY=1;exitDx=0;exitDy=0;entryX=0.5;entryY=0;entryDx=0;entryDy=0;" edge="1" parent="WIyWlLk6GJQsqaUBKTNV-1" source="9ateyp8p53Qda5KzhCCX-1" target="9ateyp8p53Qda5KzhCCX-3">
          <mxGeometry relative="1" as="geometry" />
        </mxCell>
        <mxCell id="9ateyp8p53Qda5KzhCCX-1" value="Build API Endpoint URL and Send GET Request to Google Books API" style="rounded=1;whiteSpace=wrap;html=1;fontSize=12;glass=0;strokeWidth=1;shadow=0;" vertex="1" parent="WIyWlLk6GJQsqaUBKTNV-1">
          <mxGeometry x="150" y="170" width="140" height="60" as="geometry" />
        </mxCell>
        <mxCell id="9ateyp8p53Qda5KzhCCX-3" value="Check HTTP Status Code" style="rhombus;whiteSpace=wrap;html=1;" vertex="1" parent="WIyWlLk6GJQsqaUBKTNV-1">
          <mxGeometry x="135" y="250" width="170" height="80" as="geometry" />
        </mxCell>
        <mxCell id="9ateyp8p53Qda5KzhCCX-7" value="Call Google Images API to Search for Book Covers using Google Custom Search API   " style="rounded=0;whiteSpace=wrap;html=1;" vertex="1" parent="WIyWlLk6GJQsqaUBKTNV-1">
          <mxGeometry x="145" y="510" width="150" height="80" as="geometry" />
        </mxCell>
      </root>
    </mxGraphModel>
  </diagram>
</mxfile>
